<svg xmlns="http://www.w3.org/2000/svg" width="51.189" height="41.193" viewBox="0 0 51.189 41.193"><defs><style>.a{fill:#2a61d6;}.a,.b,.c,.d{fill-rule:evenodd;}.b{fill:#29389d;}.d{fill:#499ef8;}</style></defs><g transform="translate(0 0)"><g transform="translate(0.857 1.36)"><path class="a" d="M564.577,387.917c-.033-6.615-1.311-10.688-4.312-10.688a7.194,7.194,0,0,1-3.3,5.25H520.418a5.441,5.441,0,0,0-5.438,5.438v22.836a5.441,5.441,0,0,0,5.438,5.438h38.721a5.441,5.441,0,0,0,5.438-5.438Z" transform="translate(-514.98 -377.229)"/></g><g transform="translate(6.881 0.721)"><path class="b" d="M592.913,447.028H558.36c-2.812,1.044-4.176,2.831-4.269,5.27h35.584A5.143,5.143,0,0,0,592.913,447.028Z" transform="translate(-554.091 -447.028)"/></g><g transform="translate(0 0)"><g transform="translate(0)"><path class="c" d="M610.075,428.244c0-.016,0-.033,0-.049.329-2.949,3.251-5.516,5.839-5.516h32.966c3.448,0,6.325,3.273,6.325,7.385l.014,27.781c0,3.284-3.11,6.026-7.023,6.026H611.057c-3.912,0-7.023-2.743-7.023-6.026V434.212C604.034,431.208,606.637,428.657,610.075,428.244Zm40.478-3.547a5.161,5.161,0,0,1-1.5,3.677,6.143,6.143,0,0,1-4.226,1.434.815.815,0,0,1-.186.021H611.057c-2.932,0-5.378,1.92-5.378,4.381v23.635c0,2.461,2.445,4.381,5.378,4.381H648.2c2.932,0,5.378-1.92,5.378-4.381l-.014-27.781A5.83,5.83,0,0,0,650.553,424.7Zm-1.619-.372H615.918a4.118,4.118,0,0,0-2.681,1.216,4.783,4.783,0,0,0-1.5,2.644h32.643a.817.817,0,0,1,.173-.018,4.763,4.763,0,0,0,3.372-.991,3.654,3.654,0,0,0,.987-2.692A.818.818,0,0,1,648.934,424.326Z" transform="translate(-604.034 -422.68)"/></g><g transform="translate(12.62 14.758)"><g transform="translate(0 0)"><path class="d" d="M564.107,419.708a2.9,2.9,0,0,0-2.9-2.9H541.533a2.9,2.9,0,0,0-2.9,2.9v10.383a2.9,2.9,0,0,0,2.9,2.9h18.353l4.2,3.482.025-6.383Z" transform="translate(-538.632 -416.807)"/></g><g transform="translate(5.442 2.869)"><g transform="translate(0.981)"><g transform="translate(8.058)"><path class="c" d="M615.12,426.846l-2.927,2.292a.823.823,0,0,0,1.014,1.3l2.927-2.292a.823.823,0,1,0-1.014-1.3Z" transform="translate(-611.877 -426.671)"/></g><path class="c" d="M575.457,428.141l2.927,2.292a.823.823,0,1,0,1.014-1.3l-2.927-2.292a.823.823,0,1,0-1.014,1.3Z" transform="translate(-575.142 -426.671)"/></g><g transform="translate(0 6.275)"><path class="c" d="M192.578,209.91c.977-1.313,3.221-2.164,5.8-2.164,2.6,0,4.859.863,5.822,2.193a.823.823,0,1,0,1.332-.965c-1.193-1.648-3.934-2.873-7.154-2.873-3.191,0-5.911,1.2-7.12,2.827a.823.823,0,1,0,1.32.982Z" transform="translate(-191.096 -206.101)"/></g></g></g></g></g></svg>